%TF.GenerationSoftware,KiCad,Pcbnew,6.0.2+dfsg-1*%
%TF.CreationDate,2023-10-02T17:07:50+02:00*%
%TF.ProjectId,iop,696f702e-6b69-4636-9164-5f7063625858,rev?*%
%TF.SameCoordinates,Original*%
%TF.FileFunction,Soldermask,Top*%
%TF.FilePolarity,Negative*%
%FSLAX46Y46*%
G04 Gerber Fmt 4.6, Leading zero omitted, Abs format (unit mm)*
G04 Created by KiCad (PCBNEW 6.0.2+dfsg-1) date 2023-10-02 17:07:50*
%MOMM*%
%LPD*%
G01*
G04 APERTURE LIST*
G04 Aperture macros list*
%AMRoundRect*
0 Rectangle with rounded corners*
0 $1 Rounding radius*
0 $2 $3 $4 $5 $6 $7 $8 $9 X,Y pos of 4 corners*
0 Add a 4 corners polygon primitive as box body*
4,1,4,$2,$3,$4,$5,$6,$7,$8,$9,$2,$3,0*
0 Add four circle primitives for the rounded corners*
1,1,$1+$1,$2,$3*
1,1,$1+$1,$4,$5*
1,1,$1+$1,$6,$7*
1,1,$1+$1,$8,$9*
0 Add four rect primitives between the rounded corners*
20,1,$1+$1,$2,$3,$4,$5,0*
20,1,$1+$1,$4,$5,$6,$7,0*
20,1,$1+$1,$6,$7,$8,$9,0*
20,1,$1+$1,$8,$9,$2,$3,0*%
G04 Aperture macros list end*
%ADD10C,3.200000*%
%ADD11R,1.600000X1.600000*%
%ADD12O,1.600000X1.600000*%
%ADD13R,1.700000X1.700000*%
%ADD14O,1.700000X1.700000*%
%ADD15RoundRect,0.250000X-0.400000X-0.625000X0.400000X-0.625000X0.400000X0.625000X-0.400000X0.625000X0*%
%ADD16R,1.500000X1.500000*%
%ADD17O,1.500000X1.500000*%
%ADD18C,1.524000*%
%ADD19R,2.400000X1.600000*%
%ADD20O,2.400000X1.600000*%
%ADD21C,2.000000*%
%ADD22C,1.600000*%
%ADD23C,2.600000*%
%ADD24RoundRect,0.250000X-0.725000X0.600000X-0.725000X-0.600000X0.725000X-0.600000X0.725000X0.600000X0*%
%ADD25O,1.950000X1.700000*%
%ADD26R,3.000000X3.000000*%
%ADD27C,3.000000*%
%ADD28RoundRect,0.237500X0.237500X-0.300000X0.237500X0.300000X-0.237500X0.300000X-0.237500X-0.300000X0*%
%ADD29RoundRect,0.237500X0.300000X0.237500X-0.300000X0.237500X-0.300000X-0.237500X0.300000X-0.237500X0*%
%ADD30RoundRect,0.237500X-0.300000X-0.237500X0.300000X-0.237500X0.300000X0.237500X-0.300000X0.237500X0*%
%ADD31C,2.340000*%
%ADD32RoundRect,0.250000X-0.625000X0.400000X-0.625000X-0.400000X0.625000X-0.400000X0.625000X0.400000X0*%
G04 APERTURE END LIST*
D10*
%TO.C,mnt_hole*%
X87630000Y-160020000D03*
%TD*%
%TO.C,mnt_hole*%
X142240000Y-110490000D03*
%TD*%
D11*
%TO.C,RN1*%
X76200000Y-108712000D03*
D12*
X78740000Y-108712000D03*
X81280000Y-108712000D03*
X83820000Y-108712000D03*
X86360000Y-108712000D03*
X88900000Y-108712000D03*
%TD*%
D13*
%TO.C,J8*%
X83820000Y-144780000D03*
D14*
X83820000Y-142240000D03*
X83820000Y-139700000D03*
%TD*%
D15*
%TO.C,R5*%
X64490000Y-161544000D03*
X67590000Y-161544000D03*
%TD*%
D16*
%TO.C,D1*%
X134620000Y-125725000D03*
D17*
X134620000Y-133345000D03*
%TD*%
D18*
%TO.C,U1*%
X91390000Y-118100000D03*
X91390000Y-120640000D03*
X91390000Y-123180000D03*
X91390000Y-125720000D03*
X91390000Y-128260000D03*
X91390000Y-130800000D03*
X91390000Y-133340000D03*
X91390000Y-135880000D03*
X91390000Y-138420000D03*
X91390000Y-140960000D03*
X91390000Y-143500000D03*
X91390000Y-146040000D03*
X91390000Y-148580000D03*
X91390000Y-151120000D03*
X91390000Y-153660000D03*
X116890000Y-118100000D03*
X116890000Y-120640000D03*
X116890000Y-123180000D03*
X116890000Y-125720000D03*
X116890000Y-128260000D03*
X116890000Y-130800000D03*
X116890000Y-133340000D03*
X116890000Y-135880000D03*
X116890000Y-138420000D03*
X116890000Y-140960000D03*
X116890000Y-143500000D03*
X116890000Y-146040000D03*
X116890000Y-148580000D03*
X116890000Y-151120000D03*
X116890000Y-153660000D03*
%TD*%
D19*
%TO.C,U2*%
X72390000Y-153680000D03*
D20*
X72390000Y-156220000D03*
X72390000Y-158760000D03*
X72390000Y-161300000D03*
X80010000Y-161300000D03*
X80010000Y-158760000D03*
X80010000Y-156220000D03*
X80010000Y-153680000D03*
%TD*%
D21*
%TO.C,SW1*%
X80518000Y-114808000D03*
X87018000Y-114808000D03*
X87018000Y-119308000D03*
X80518000Y-119308000D03*
%TD*%
D11*
%TO.C,C4*%
X76200000Y-139700000D03*
D22*
X76200000Y-143500000D03*
%TD*%
D23*
%TO.C,L3*%
X139700000Y-137160000D03*
X139700000Y-142160000D03*
%TD*%
D24*
%TO.C,J2*%
X78740000Y-127000000D03*
D25*
X78740000Y-129500000D03*
X78740000Y-132000000D03*
%TD*%
D23*
%TO.C,L2*%
X127000000Y-137160000D03*
X127000000Y-132160000D03*
%TD*%
D13*
%TO.C,J5*%
X85090000Y-133340000D03*
D14*
X85090000Y-130800000D03*
X85090000Y-128260000D03*
X85090000Y-125720000D03*
%TD*%
D26*
%TO.C,J1*%
X133096000Y-116078000D03*
D27*
X128016000Y-116078000D03*
%TD*%
D13*
%TO.C,J7*%
X67320000Y-118115000D03*
D14*
X67320000Y-115575000D03*
X69860000Y-118115000D03*
X69860000Y-115575000D03*
X72400000Y-118115000D03*
X72400000Y-115575000D03*
X74940000Y-118115000D03*
X74940000Y-115575000D03*
%TD*%
D28*
%TO.C,C8*%
X60960000Y-150722500D03*
X60960000Y-148997500D03*
%TD*%
D26*
%TO.C,J3*%
X134874000Y-156718000D03*
D27*
X139954000Y-156718000D03*
%TD*%
D29*
%TO.C,C3*%
X133805000Y-122174000D03*
X132080000Y-122174000D03*
%TD*%
D11*
%TO.C,C7*%
X65024000Y-152654000D03*
D22*
X65024000Y-156454000D03*
%TD*%
D30*
%TO.C,C2*%
X136297500Y-147320000D03*
X138022500Y-147320000D03*
%TD*%
D23*
%TO.C,L1*%
X129540000Y-149860000D03*
X129540000Y-144860000D03*
%TD*%
D26*
%TO.C,J6*%
X63500000Y-144780000D03*
D27*
X63500000Y-139700000D03*
%TD*%
D31*
%TO.C,RV1*%
X61040000Y-132015000D03*
X71040000Y-129515000D03*
X61040000Y-127015000D03*
%TD*%
D32*
%TO.C,R3*%
X127000000Y-124434000D03*
X127000000Y-127534000D03*
%TD*%
D28*
%TO.C,C1*%
X121920000Y-126846500D03*
X121920000Y-125121500D03*
%TD*%
M02*
