M48
; DRILL file {KiCad 6.0.2+dfsg-1} date lun. 02 oct. 2023 17:07:54
; FORMAT={-:-/ absolute / inch / decimal}
; #@! TF.CreationDate,2023-10-02T17:07:54+02:00
; #@! TF.GenerationSoftware,Kicad,Pcbnew,6.0.2+dfsg-1
; #@! TF.FileFunction,Plated,1,2,PTH
FMAT,2
INCH
; #@! TA.AperFunction,Plated,PTH,ViaDrill
T1C0.0157
; #@! TA.AperFunction,Plated,PTH,ComponentDrill
T2C0.0295
; #@! TA.AperFunction,Plated,PTH,ComponentDrill
T3C0.0315
; #@! TA.AperFunction,Plated,PTH,ComponentDrill
T4C0.0335
; #@! TA.AperFunction,Plated,PTH,ComponentDrill
T5C0.0374
; #@! TA.AperFunction,Plated,PTH,ComponentDrill
T6C0.0394
; #@! TA.AperFunction,Plated,PTH,ComponentDrill
T7C0.0433
; #@! TA.AperFunction,Plated,PTH,ComponentDrill
T8C0.0512
; #@! TA.AperFunction,Plated,PTH,ComponentDrill
T9C0.0598
%
G90
G05
T1
X4.004Y-5.026
X4.11Y-5.24
X4.13Y-5.02
T2
X5.3Y-4.9498
X5.3Y-5.2498
T3
X2.56Y-6.01
X2.56Y-6.1596
X2.85Y-6.0504
X2.85Y-6.1504
X2.85Y-6.2504
X2.85Y-6.3504
X3.0Y-4.28
X3.0Y-5.5
X3.0Y-5.6496
X3.1Y-4.28
X3.15Y-6.0504
X3.15Y-6.1504
X3.15Y-6.2504
X3.15Y-6.3504
X3.2Y-4.28
X3.3Y-4.28
X3.4Y-4.28
X3.5Y-4.28
T4
X3.598Y-4.6496
X3.598Y-4.7496
X3.598Y-4.8496
X3.598Y-4.9496
X3.598Y-5.0496
X3.598Y-5.1496
X3.598Y-5.2496
X3.598Y-5.3496
X3.598Y-5.4496
X3.598Y-5.5496
X3.598Y-5.6496
X3.598Y-5.7496
X3.598Y-5.8496
X3.598Y-5.9496
X3.598Y-6.0496
X4.602Y-4.6496
X4.602Y-4.7496
X4.602Y-4.8496
X4.602Y-4.9496
X4.602Y-5.0496
X4.602Y-5.1496
X4.602Y-5.2496
X4.602Y-5.3496
X4.602Y-5.4496
X4.602Y-5.5496
X4.602Y-5.6496
X4.602Y-5.7496
X4.602Y-5.8496
X4.602Y-5.9496
X4.602Y-6.0496
T5
X3.1Y-5.0
X3.1Y-5.0984
X3.1Y-5.1969
T6
X2.6504Y-4.5502
X2.6504Y-4.6502
X2.7504Y-4.5502
X2.7504Y-4.6502
X2.8504Y-4.5502
X2.8504Y-4.6502
X2.9504Y-4.5502
X2.9504Y-4.6502
X3.3Y-5.5
X3.3Y-5.6
X3.3Y-5.7
X3.35Y-4.9496
X3.35Y-5.0496
X3.35Y-5.1496
X3.35Y-5.2496
T7
X3.17Y-4.52
X3.17Y-4.6972
X3.4259Y-4.52
X3.4259Y-4.6972
T8
X2.4031Y-5.0006
X2.4031Y-5.1974
X2.7969Y-5.099
X5.0Y-5.2031
X5.0Y-5.4
X5.1Y-5.7031
X5.1Y-5.9
X5.5Y-5.4
X5.5Y-5.5969
T9
X2.5Y-5.5
X2.5Y-5.7
X5.04Y-4.57
X5.24Y-4.57
X5.31Y-6.17
X5.51Y-6.17
T0
M30
